<?xml version="1.0" standalone="no"?>
<!DOCTYPE svg PUBLIC "-//W3C//DTD SVG 20010904//EN"
 "http://www.w3.org/TR/2001/REC-SVG-20010904/DTD/svg10.dtd">
<svg version="1.0" xmlns="http://www.w3.org/2000/svg"
 width="512.000000pt" height="512.000000pt" viewBox="0 0 512.000000 512.000000"
 preserveAspectRatio="xMidYMid meet">
<metadata>
Created by potrace 1.16, written by Peter Selinger 2001-2019
</metadata>
<g transform="translate(0.000000,512.000000) scale(0.100000,-0.100000)"
fill="#FFFFFF" stroke="none">
<path d="M2395 4440 c-50 -4 -118 -13 -150 -20 -83 -16 -217 -52 -212 -56 2
-2 56 7 121 21 325 67 615 53 903 -43 84 -29 108 -32 87 -13 -14 13 -188 67
-278 86 -157 32 -295 39 -471 25z"/>
<path d="M2663 4333 c9 -2 25 -2 35 0 9 3 1 5 -18 5 -19 0 -27 -2 -17 -5z"/>
<path d="M2748 4323 c6 -2 18 -2 25 0 6 3 1 5 -13 5 -14 0 -19 -2 -12 -5z"/>
<path d="M2808 4313 c7 -3 16 -2 19 1 4 3 -2 6 -13 5 -11 0 -14 -3 -6 -6z"/>
<path d="M2858 4303 c7 -3 16 -2 19 1 4 3 -2 6 -13 5 -11 0 -14 -3 -6 -6z"/>
<path d="M3350 4296 c0 -2 24 -17 53 -34 77 -44 207 -143 313 -239 52 -46 94
-80 94 -75 0 13 -133 138 -205 193 -87 66 -255 168 -255 155z"/>
<path d="M2938 4283 c7 -3 16 -2 19 1 4 3 -2 6 -13 5 -11 0 -14 -3 -6 -6z"/>
<path d="M2205 4255 c-241 -39 -487 -141 -668 -276 -143 -107 -280 -253 -316
-334 -7 -16 -34 -64 -61 -105 -182 -285 -266 -542 -289 -885 -6 -87 -9 -97
-19 -73 -6 15 -14 89 -18 166 -5 112 -3 159 11 238 38 217 119 407 265 627
159 239 310 397 501 524 38 25 69 48 69 50 0 2 -24 -10 -52 -26 -150 -86 -367
-277 -502 -445 -194 -239 -318 -491 -380 -767 -109 -494 -59 -887 164 -1275
98 -171 242 -357 366 -474 l48 -45 -54 60 c-152 170 -302 414 -349 567 -14 46
-22 110 -26 200 -4 73 -15 197 -26 276 -10 79 -19 157 -19 175 0 39 -10 77
-19 77 -6 0 6 -104 39 -335 6 -44 10 -114 8 -155 l-3 -75 -17 55 c-54 174 -88
375 -87 510 0 56 4 87 8 75 4 -11 25 -29 47 -40 l39 -20 7 -100 c3 -55 14
-134 23 -175 17 -77 31 -159 59 -334 9 -55 30 -139 47 -188 24 -72 28 -91 18
-107 -11 -16 -6 -29 31 -88 109 -168 203 -268 378 -400 365 -275 749 -398
1182 -378 359 16 548 57 788 171 273 129 496 318 647 549 92 141 111 185 219
523 64 196 97 397 94 562 -1 79 -1 77 -9 -40 -18 -298 -76 -491 -219 -725 -58
-94 -114 -166 -230 -294 -73 -81 -96 -111 -87 -120 8 -8 -2 -24 -38 -63 -28
-29 -3 -8 55 47 140 134 210 211 271 303 70 105 71 103 9 -13 -177 -334 -383
-537 -693 -685 -134 -64 -283 -113 -446 -144 -167 -33 -184 -32 -51 3 211 56
464 181 629 311 47 37 51 44 51 82 0 39 5 46 100 136 130 122 168 178 279 405
82 167 97 206 132 347 39 160 45 204 30 228 -14 22 -27 -6 -50 -113 -61 -271
-74 -306 -174 -475 -67 -113 -94 -146 -172 -215 -46 -40 -69 -55 -77 -47 -7 7
-38 -14 -102 -69 -192 -168 -448 -314 -636 -363 -145 -38 -247 -49 -393 -43
-315 12 -619 118 -855 298 -94 71 -127 80 -49 14 213 -184 510 -302 847 -336
275 -28 503 20 790 166 72 37 249 157 330 225 100 84 117 95 56 36 -103 -98
-261 -209 -410 -287 -385 -203 -822 -242 -1203 -108 -118 41 -280 126 -300
155 -14 23 -16 23 -28 7 -12 -16 -22 -10 -111 57 -54 41 -103 78 -109 83 -6 5
1 17 20 32 l30 25 -46 47 c-212 219 -326 417 -407 708 -58 206 -67 272 -66
495 0 185 2 216 26 316 84 357 312 706 602 923 108 81 132 95 141 81 4 -6 33
4 73 24 281 141 655 168 980 70 45 -13 82 -28 82 -33 0 -4 -5 -23 -11 -40 -13
-37 -4 -37 -133 -2 -229 61 -486 52 -721 -25 -85 -28 -258 -112 -291 -141 -10
-10 -30 -18 -44 -18 -16 0 -26 -6 -28 -18 -7 -33 26 -30 69 7 95 81 319 171
499 202 178 29 437 8 599 -50 52 -19 83 -20 128 -4 106 38 -67 137 -322 184
-71 13 -129 15 -270 11 -177 -4 -254 -17 -430 -71 -11 -3 12 9 50 28 39 20 76
35 83 36 6 0 12 4 12 9 0 11 -152 -50 -285 -113 -206 -98 -442 -318 -583 -542
-106 -170 -170 -315 -213 -489 -26 -101 -32 -146 -36 -287 -7 -197 5 -310 52
-493 43 -168 82 -280 134 -382 23 -46 39 -83 36 -83 -3 0 16 -28 43 -62 93
-120 96 -127 78 -147 -13 -14 -13 -20 -3 -31 6 -8 2 -6 -11 5 -13 10 -48 50
-79 87 -30 37 -59 66 -63 63 -5 -3 -12 0 -16 7 -4 7 -3 10 1 5 5 -4 14 6 21
23 12 28 10 37 -31 118 -24 48 -47 100 -50 115 -4 15 -11 25 -16 22 -12 -8
-93 253 -115 370 -15 78 -19 147 -19 311 0 191 2 214 20 247 16 30 17 41 8 56
-24 38 79 320 185 506 79 139 144 226 252 339 192 199 404 322 690 398 99 26
139 31 280 35 184 6 285 -4 434 -43 128 -33 259 -86 473 -190 99 -49 356 -269
440 -379 17 -22 35 -37 39 -33 29 30 -325 356 -460 423 -34 17 -43 25 -28 25
16 0 22 6 22 24 0 30 -23 50 -50 41 -13 -4 -20 -15 -20 -30 0 -24 -1 -24 -97
22 -122 57 -291 116 -403 140 -107 23 -469 26 -565 5 -453 -99 -789 -348
-1022 -755 -34 -60 -78 -148 -98 -195 -54 -128 -118 -340 -120 -397 -2 -27 -6
-117 -10 -200 -6 -118 -4 -179 10 -285 27 -218 99 -463 181 -618 50 -95 43
-101 -12 -9 -21 34 -44 71 -52 82 -13 19 -14 18 -7 -10 25 -110 133 -275 296
-451 l91 -99 -98 100 c-255 258 -317 398 -420 940 -24 124 -28 335 -10 485 35
299 118 510 319 809 115 172 154 218 247 296 204 170 433 279 695 331 121 25
419 25 555 1 85 -14 112 -15 99 -3 -2 3 -45 12 -94 21 -125 24 -412 29 -530
10z m-979 -2662 c15 -20 23 -33 16 -29 -13 8 -56 66 -49 66 3 0 17 -17 33 -37z
m84 -98 c30 -30 52 -55 49 -55 -2 0 -29 25 -59 55 -30 30 -52 55 -49 55 2 0
29 -25 59 -55z m2274 -226 c-41 -43 -221 -162 -323 -213 -190 -95 -418 -163
-576 -171 l-90 -4 79 9 c189 22 382 78 551 160 104 50 324 190 359 229 11 11
21 21 24 21 3 0 -7 -14 -24 -31z m-2064 -56 c0 -7 -58 36 -66 49 -4 7 9 -1 29
-16 20 -16 37 -30 37 -33z m465 -211 c105 -42 214 -73 330 -96 39 -8 60 -15
47 -15 -41 -2 -175 30 -293 69 -116 38 -323 134 -369 171 -14 11 22 -5 80 -35
58 -30 150 -73 205 -94z m493 -119 c-15 -2 -42 -2 -60 0 -18 2 -6 4 27 4 33 0
48 -2 33 -4z m90 -10 c-10 -2 -26 -2 -35 0 -10 3 -2 5 17 5 19 0 27 -2 18 -5z
m225 -80 c-7 -2 -21 -2 -30 0 -10 3 -4 5 12 5 17 0 24 -2 18 -5z"/>
<path d="M3070 4242 c8 -5 26 -13 40 -16 17 -5 20 -4 10 2 -8 5 -26 13 -40 16
-17 5 -20 4 -10 -2z"/>
<path d="M3150 4210 c8 -5 20 -10 25 -10 6 0 3 5 -5 10 -8 5 -19 10 -25 10 -5
0 -3 -5 5 -10z"/>
<path d="M3320 4201 c0 -11 19 -24 38 -27 16 -3 15 1 -4 20 -17 18 -34 21 -34
7z"/>
<path d="M3014 4035 c-9 -22 6 -37 32 -32 13 2 29 -2 34 -9 6 -7 34 -18 63
-24 64 -15 141 -60 276 -163 96 -73 131 -88 131 -54 0 15 -83 84 -204 171 -66
48 -84 56 -110 51 -48 -9 -159 25 -171 53 -11 25 -43 30 -51 7z"/>
<path d="M3444 3989 c-10 -17 13 -36 27 -22 12 12 4 33 -11 33 -5 0 -12 -5
-16 -11z"/>
<path d="M2330 3924 c-145 -27 -199 -41 -287 -75 -56 -22 -141 -64 -190 -93
-48 -29 -100 -56 -115 -60 -112 -27 -434 -425 -412 -510 4 -16 -4 -51 -24
-103 -49 -124 -67 -250 -67 -458 0 -255 37 -425 137 -633 47 -99 160 -261 242
-347 l74 -79 47 38 c43 36 47 37 64 22 26 -24 53 -21 49 6 -2 14 -19 30 -49
45 -27 14 -97 76 -172 153 -158 161 -160 169 -48 230 64 35 64 55 -1 159 -44
70 -61 89 -100 108 -44 22 -47 27 -60 81 -9 38 -13 125 -12 257 0 182 3 208
26 296 43 159 143 350 193 369 12 5 45 38 74 74 137 175 416 324 681 365 41 7
82 19 92 28 34 30 269 -2 446 -61 207 -70 395 -197 525 -356 25 -31 37 -39 37
-27 0 27 -160 187 -258 257 -48 34 -134 85 -192 112 -58 28 -107 52 -109 54
-2 2 4 13 13 23 17 18 17 20 -1 29 -33 17 -177 61 -253 78 -73 15 -300 27
-350 18z m352 -79 c78 -13 231 -55 225 -61 -2 -2 -48 8 -103 22 -128 33 -324
46 -324 21 0 -22 -5 -24 -115 -42 -236 -38 -467 -151 -652 -319 -66 -61 -78
-67 -68 -36 13 42 -17 17 -74 -60 -124 -167 -195 -306 -237 -465 -23 -87 -27
-419 -6 -529 15 -78 9 -100 -8 -35 -63 232 -59 483 10 683 46 134 213 379 337
497 302 285 628 389 1015 324z m-1030 -2067 c107 -111 119 -133 80 -146 -14
-4 -92 68 -174 160 -50 57 -58 71 -48 83 7 8 17 15 22 15 6 0 59 -51 120 -112z"/>
<path d="M3031 3916 c-5 -6 -12 -21 -15 -33 -6 -19 -1 -26 28 -40 41 -19 41
-21 22 -68 -12 -29 -13 -35 -2 -35 8 0 24 27 36 61 21 56 25 60 49 54 43 -11
45 -11 49 7 4 21 -27 38 -100 53 -43 9 -60 10 -67 1z"/>
<path d="M3750 3916 c0 -2 8 -10 18 -17 15 -13 16 -12 3 4 -13 16 -21 21 -21
13z"/>
<path d="M3820 3900 c-11 -11 -20 -29 -20 -39 0 -82 112 -182 169 -151 58 30
14 152 -71 196 -37 19 -54 18 -78 -6z"/>
<path d="M3226 3894 c-10 -27 -8 -30 63 -77 89 -59 231 -184 231 -204 0 -9
-19 2 -50 30 -28 25 -97 77 -155 117 -85 57 -112 71 -137 68 -17 -2 -33 -9
-36 -15 -5 -18 27 -28 48 -15 15 9 29 3 81 -33 54 -37 63 -49 61 -70 -3 -25
20 -36 33 -15 10 17 21 12 77 -36 29 -25 61 -49 70 -52 33 -14 147 -123 142
-137 -8 -19 31 -55 61 -55 30 0 73 -56 136 -175 44 -83 85 -145 97 -145 4 0
13 4 20 9 11 6 3 29 -33 102 -64 127 -126 230 -142 236 -8 3 -11 14 -7 27 7
28 -30 76 -60 76 -12 0 -32 -7 -44 -16 -20 -14 -24 -14 -50 4 -15 11 -40 34
-56 50 l-28 31 22 31 22 31 24 -22 c13 -12 27 -19 31 -16 9 9 -27 47 -44 47
-25 0 -74 31 -187 117 -61 47 -127 93 -147 104 -33 16 -38 17 -43 3z"/>
<path d="M2977 3853 c-12 -11 -7 -33 7 -33 8 0 16 -7 20 -15 7 -18 36 -20 36
-2 0 11 -42 57 -52 57 -3 0 -8 -3 -11 -7z"/>
<path d="M3641 3842 c-12 -22 3 -42 31 -42 24 0 34 26 18 45 -17 20 -37 19
-49 -3z"/>
<path d="M3730 3802 c0 -7 24 -38 53 -70 57 -63 128 -153 173 -221 l28 -43
-23 -19 c-13 -11 -21 -22 -18 -26 4 -3 20 9 36 26 l30 32 36 -70 c92 -183 141
-358 154 -553 9 -127 -1 -395 -18 -483 -8 -41 -7 -51 7 -61 13 -10 19 -10 23
-1 37 68 47 496 16 647 -45 217 -170 516 -229 550 -15 8 -50 47 -77 85 -57 81
-190 226 -191 207z"/>
<path d="M3151 3758 c0 -7 32 -36 72 -64 40 -29 105 -79 144 -113 40 -34 75
-61 78 -61 36 0 -75 106 -195 186 -100 67 -100 67 -99 52z"/>
<path d="M2316 3714 c-189 -42 -425 -173 -441 -244 -4 -18 -38 -64 -84 -114
-43 -46 -95 -110 -116 -141 -106 -160 -159 -389 -140 -609 6 -75 11 -92 34
-119 16 -18 35 -60 45 -98 44 -167 144 -336 275 -462 69 -67 79 -82 70 -98 -7
-13 -6 -25 1 -40 18 -32 35 -17 36 32 0 52 13 78 55 113 26 22 28 26 11 26
-28 0 -134 108 -188 191 -160 247 -194 577 -87 847 14 35 27 61 29 60 1 -2 -7
-35 -18 -73 -26 -86 -31 -297 -9 -390 38 -167 55 -224 92 -298 100 -201 258
-327 487 -389 110 -30 314 -30 427 0 235 63 427 218 531 427 62 127 78 196 78
340 -1 144 -9 303 -18 330 -3 11 5 -3 19 -32 33 -66 55 -182 55 -286 0 -228
-74 -416 -224 -574 -278 -293 -681 -372 -1048 -207 -73 33 -79 34 -112 20 -41
-17 -56 -42 -56 -94 0 -76 31 -76 123 0 47 39 48 40 80 25 312 -147 680 -92
966 146 90 74 192 202 239 299 20 43 39 78 42 78 3 0 11 -4 19 -9 12 -8 6 -26
-31 -103 -121 -248 -340 -432 -614 -514 -69 -20 -118 -27 -219 -31 -157 -6
-255 9 -382 61 -93 38 -103 41 -103 27 0 -4 30 -22 68 -39 397 -181 895 -42
1172 327 140 186 209 434 181 651 -12 95 -7 118 23 107 20 -8 31 -96 30 -247
-2 -407 -197 -735 -543 -914 -281 -145 -640 -151 -929 -15 -61 28 -89 36 -101
30 -24 -13 -111 -108 -111 -121 0 -30 27 -51 112 -88 337 -147 649 -148 953
-3 177 84 284 161 417 297 84 87 131 149 185 244 49 85 52 105 21 129 l-22 18
32 94 c97 296 79 565 -59 851 -60 123 -61 111 12 160 l24 16 -22 23 -22 22
-50 -42 c-28 -24 -51 -45 -51 -47 0 -3 20 -39 45 -82 52 -90 98 -202 127 -310
32 -117 32 -352 -1 -480 -27 -110 -38 -119 -14 -11 26 115 23 389 -5 491 -94
342 -299 602 -587 744 -165 81 -272 106 -475 110 -122 3 -183 0 -234 -12z m22
-71 c-2 -10 -33 -28 -83 -48 -105 -41 -157 -68 -232 -120 -54 -38 -63 -42 -75
-28 -10 13 -8 19 15 39 48 42 167 107 256 140 99 38 124 42 119 17z m492 -18
c172 -55 331 -155 449 -281 67 -72 150 -181 118 -155 -23 19 -21 7 8 -42 55
-95 109 -281 126 -432 9 -82 -2 -225 -23 -300 -18 -67 -21 -21 -4 77 17 96 19
252 5 303 -6 24 -8 18 -7 -30 1 -81 0 -87 -12 -80 -5 3 -10 25 -10 48 -1 121
-54 259 -160 418 -158 234 -368 373 -622 410 -159 23 -311 -2 -463 -77 -152
-74 -204 -107 -276 -178 -247 -241 -338 -526 -271 -848 38 -183 117 -333 240
-455 45 -46 82 -87 82 -92 0 -5 -7 -14 -15 -21 -12 -10 -27 0 -91 61 -124 121
-222 293 -271 475 -35 135 -37 346 -4 469 54 202 185 394 345 507 63 43 72 47
82 33 11 -15 21 -11 91 29 43 25 105 55 138 67 74 27 85 35 85 64 0 21 6 24
68 32 166 20 336 -1 483 -61 145 -59 327 -197 415 -317 20 -27 39 -48 42 -45
7 8 -53 79 -134 159 -122 121 -273 209 -439 258 -70 21 -101 24 -247 24 -93 0
-160 3 -150 7 9 4 89 6 177 4 141 -3 170 -7 245 -31z m-97 -89 c267 -51 513
-249 618 -495 45 -104 33 -115 -18 -18 -98 183 -223 310 -388 392 -117 58
-186 76 -321 82 -155 7 -235 -14 -429 -113 -82 -42 -160 -86 -172 -97 -13 -11
-23 -16 -23 -10 0 17 97 101 170 148 168 109 368 148 563 111z m82 -130 c319
-108 515 -391 515 -746 0 -140 -15 -204 -75 -325 -56 -113 -131 -198 -240
-270 -225 -150 -496 -174 -760 -67 -39 15 -49 24 -47 39 3 24 -22 47 -43 39
-9 -3 -19 -16 -24 -28 -8 -21 -14 -17 -97 67 -72 72 -99 108 -137 182 -46 89
-87 218 -87 272 0 15 8 31 20 39 17 10 20 23 20 90 0 102 29 215 82 321 81
161 275 329 444 384 114 37 108 36 234 33 93 -3 131 -9 195 -30z m563 -611 c0
-25 -2 -24 -9 10 -10 51 -10 92 1 50 4 -16 8 -43 8 -60z m9 -97 c-2 -13 -4 -3
-4 22 0 25 2 35 4 23 2 -13 2 -33 0 -45z m173 -578 c-12 -23 -24 -40 -27 -37
-3 3 5 24 18 46 29 53 37 46 9 -9z m-701 -580 c-54 -32 -280 -58 -382 -46
-101 13 -61 23 91 24 89 1 171 7 207 15 33 8 69 15 80 15 17 1 18 0 4 -8z"/>
<path d="M2550 3250 c-267 -47 -469 -273 -470 -526 0 -52 3 -62 18 -66 14 -4
21 -18 25 -53 10 -70 61 -167 123 -234 103 -111 213 -161 358 -161 137 0 232
39 339 139 107 100 150 198 150 341 0 109 -20 173 -78 252 -37 50 -148 148
-168 148 -7 0 -3 -7 8 -15 75 -56 121 -129 150 -241 19 -74 19 -194 0 -267
-18 -68 -18 -70 -6 -62 15 8 41 138 41 199 0 80 -17 152 -55 229 -18 37 -32
67 -30 67 1 0 20 -26 42 -57 63 -91 78 -141 78 -263 0 -97 -2 -110 -32 -172
-18 -38 -37 -68 -43 -68 -6 0 -39 -29 -74 -64 -146 -148 -352 -185 -534 -95
-181 89 -295 305 -263 501 40 252 264 434 512 415 224 -18 383 -151 488 -411
8 -20 15 -26 22 -19 16 16 -14 123 -58 206 -107 202 -327 315 -543 277z"/>
<path d="M2440 3138 c-86 -36 -112 -53 -162 -106 -142 -151 -168 -379 -65
-555 33 -57 130 -145 191 -175 149 -74 336 -41 464 81 102 98 147 283 106 441
-35 137 -120 258 -213 303 -49 24 -70 28 -161 30 -90 3 -113 0 -160 -19z m278
-138 c75 -40 125 -93 160 -169 22 -46 26 -70 25 -131 -1 -82 -14 -121 -62
-187 -30 -42 -104 -103 -124 -103 -6 0 8 13 29 28 73 54 124 123 139 191 32
150 -49 308 -193 374 -66 30 -188 30 -254 0 -58 -26 -131 -93 -164 -148 -94
-161 -16 -383 165 -473 47 -23 68 -27 136 -26 52 0 94 6 119 17 29 13 36 14
27 3 -19 -22 -107 -39 -177 -33 -84 6 -162 46 -224 114 -65 71 -93 145 -93
245 -1 69 3 85 34 145 89 174 291 242 457 153z m-72 -89 c47 -22 109 -90 125
-139 49 -147 -101 -308 -252 -272 -69 17 -121 58 -153 121 -43 86 -30 167 37
238 65 68 161 89 243 52z"/>
<path d="M1950 2708 c1 -51 17 -154 35 -216 45 -159 58 -194 94 -250 47 -72
116 -128 214 -177 99 -48 174 -65 288 -65 189 0 354 67 494 201 44 43 96 103
115 135 41 68 79 175 80 222 0 49 -16 30 -24 -27 -19 -147 -174 -340 -337
-420 -111 -54 -184 -72 -299 -73 -262 -2 -458 130 -574 385 -37 80 -66 199
-66 266 0 22 -4 43 -10 46 -6 4 -10 -7 -10 -27z"/>
<path d="M1952 2403 c19 -71 78 -181 122 -230 61 -67 68 -48 9 29 -26 35 -56
81 -65 103 -9 22 -26 61 -37 88 -24 57 -44 64 -29 10z"/>
<path d="M4090 3628 c0 -2 33 -68 73 -148 83 -164 146 -344 176 -503 26 -135
26 -147 2 -147 -51 0 -68 -66 -25 -99 27 -21 81 -20 97 3 17 24 -25 271 -74
436 -56 190 -192 460 -231 460 -10 0 -18 -1 -18 -2z"/>
<path d="M3810 3539 c0 -11 18 -46 39 -78 57 -84 126 -230 127 -271 0 -19 13
-80 27 -135 53 -197 70 -469 41 -650 -6 -39 -6 -39 12 -22 17 16 19 37 22 191
4 194 -11 333 -54 489 -14 51 -29 110 -33 132 -8 42 -37 117 -71 188 -16 31
-17 37 -4 22 22 -27 95 -181 99 -209 1 -11 12 -50 24 -86 51 -152 63 -243 68
-478 3 -178 6 -227 18 -238 13 -13 15 -11 22 13 15 58 8 393 -11 493 -39 209
-127 421 -242 583 -54 76 -84 96 -84 56z m80 -89 c6 -11 8 -20 6 -20 -3 0 -10
9 -16 20 -6 11 -8 20 -6 20 3 0 10 -9 16 -20z"/>
<path d="M3490 3540 c-12 -7 -12 -13 -4 -27 17 -28 49 -23 49 7 0 27 -21 36
-45 20z"/>
<path d="M3497 3453 c-13 -12 -7 -41 10 -47 9 -4 23 -1 30 7 8 7 11 21 7 30
-6 17 -35 23 -47 10z"/>
<path d="M3677 3330 c-26 -16 -52 -30 -57 -30 -16 0 -12 -8 34 -84 92 -147
138 -286 157 -469 12 -122 2 -258 -30 -390 -11 -47 -15 -80 -9 -83 9 -6 6 -32
-8 -68 -3 -9 -2 -16 4 -16 5 0 19 26 31 58 40 110 62 225 68 358 10 224 -23
370 -130 577 -58 113 -59 118 -41 132 30 22 41 18 72 -27 70 -103 127 -242
158 -390 20 -93 25 -309 10 -444 l-8 -82 31 -7 c18 -4 35 -14 39 -23 3 -9 -5
-57 -17 -106 -127 -497 -611 -964 -1124 -1086 -173 -41 -415 -43 -596 -5 -258
54 -478 180 -699 402 -74 73 -139 133 -145 133 -7 0 -23 -9 -36 -19 -17 -13
-22 -23 -16 -39 7 -25 20 -27 55 -9 24 13 30 9 144 -100 175 -168 375 -294
556 -353 270 -87 591 -87 855 1 379 127 751 449 927 804 68 135 135 353 121
391 -2 6 -19 16 -36 21 l-32 9 5 65 c3 35 5 136 4 224 -1 172 -19 275 -71 415
-42 110 -137 270 -162 270 -4 0 -28 -13 -54 -30z"/>
<path d="M1270 3229 c0 -14 5 -19 17 -17 26 5 29 38 4 38 -15 0 -21 -6 -21
-21z"/>
<path d="M1241 3109 c-11 -29 -21 -57 -21 -63 0 -6 -8 -24 -17 -41 -27 -50
-57 -339 -48 -465 12 -155 81 -440 107 -440 6 0 7 8 3 18 -3 9 -22 78 -42 152
-30 116 -36 156 -40 289 -7 193 9 347 38 354 26 7 34 34 18 64 -12 22 -11 32
10 86 32 87 35 97 23 97 -5 0 -19 -23 -31 -51z"/>
<path d="M4075 2378 c-2 -7 -13 -47 -25 -88 -52 -185 -121 -332 -229 -485 -38
-55 -91 -131 -117 -168 -60 -85 -237 -257 -329 -319 -39 -26 -94 -57 -123 -69
-32 -13 -52 -28 -52 -38 0 -11 -32 -28 -103 -55 -212 -82 -443 -118 -622 -96
-55 6 -120 13 -145 14 -25 2 -58 7 -75 11 -20 5 -27 4 -20 -2 21 -21 155 -45
280 -50 183 -8 365 20 525 78 143 53 350 178 472 286 131 116 299 320 344 418
24 52 32 57 13 8 -30 -81 53 65 97 169 14 35 30 65 35 68 14 9 78 217 85 275
6 50 0 74 -11 43z"/>
<path d="M4191 2244 c0 -11 3 -14 6 -6 3 7 2 16 -1 19 -3 4 -6 -2 -5 -13z"/>
<path d="M4162 2170 c-6 -11 -12 -28 -12 -39 0 -10 -7 -35 -16 -56 -8 -20 -13
-42 -11 -48 1 -5 11 12 21 39 10 27 25 56 33 65 9 10 11 24 6 37 -8 21 -9 21
-21 2z"/>
<path d="M1186 2013 c39 -89 92 -177 196 -327 4 -6 10 -8 13 -4 3 3 -22 48
-56 99 -33 52 -83 138 -110 192 -53 104 -84 134 -43 40z"/>
<path d="M1595 2026 c-15 -22 -15 -27 -1 -54 25 -49 131 -176 182 -218 100
-82 127 -91 146 -49 11 24 6 31 -88 123 -55 53 -121 125 -148 160 -27 34 -55
62 -62 62 -8 0 -21 -11 -29 -24z"/>
<path d="M3694 1953 c-49 -86 -140 -197 -226 -278 -364 -345 -837 -462 -1292
-318 -93 29 -243 97 -300 136 -47 32 -69 34 -97 6 -24 -24 -23 -77 4 -93 14
-9 26 -6 57 10 l39 22 63 -33 c95 -50 202 -90 308 -116 139 -33 391 -34 539
-1 191 43 348 112 513 223 127 87 300 259 377 378 33 51 61 97 61 102 0 22
-20 5 -46 -38z"/>
<path d="M3903 1803 c-25 -41 -187 -245 -212 -267 -12 -11 -21 -26 -21 -35 1
-31 172 175 234 282 29 50 29 66 -1 20z"/>
</g>
</svg>



